<mxfile host="app.diagrams.net" modified="2024-05-06T15:55:16.510Z" agent="Mozilla/5.0 (X11; Linux x86_64; rv:125.0) Gecko/20100101 Firefox/125.0" version="24.3.1" etag="TSjJgeNOQVdu9nie2zCe" type="github">
  <diagram name="Page-1" id="JP3WZoHdY49vGkstmOlY">
    <mxGraphModel>
      <root>
        <mxCell id="0" />
        <mxCell id="1" parent="0" />
      </root>
    </mxGraphModel>
  </diagram>
</mxfile>
